<?xml version="1.0" encoding="UTF-8"?>
<svg width="30px" height="30px" viewBox="0 0 30 30" version="1.1" xmlns="http://www.w3.org/2000/svg" xmlns:xlink="http://www.w3.org/1999/xlink">
    <!-- Generator: Sketch 49.1 (51147) - http://www.bohemiancoding.com/sketch -->
    <title>ic/30x30/blue/icMenu Copy</title>
    <desc>Created with Sketch.</desc>
    <defs></defs>
    <g id="ic/30x30/blue/icMenu-Copy" stroke="none" stroke-width="1" fill="none" fill-rule="evenodd">
        <g id="Group" transform="translate(3.000000, 7.000000)" fill="#0072FF" fill-rule="nonzero">
            <path d="M0.905660377,2.03773585 L23.0943396,2.03773585 C23.5942642,2.03773585 24,1.632 24,1.13207547 C24,0.632150943 23.5942642,0.226415094 23.0943396,0.226415094 L0.905660377,0.226415094 C0.405735849,0.226415094 0,0.632150943 0,1.13207547 C0,1.632 0.405735849,2.03773585 0.905660377,2.03773585 Z" id="Shape"></path>
            <path d="M0.905660377,8.83018868 L23.0943396,8.83018868 C23.5942642,8.83018868 24,8.42445283 24,7.9245283 C24,7.42460377 23.5942642,7.01886792 23.0943396,7.01886792 L0.905660377,7.01886792 C0.405735849,7.01886792 0,7.42460377 0,7.9245283 C0,8.42445283 0.405735849,8.83018868 0.905660377,8.83018868 Z" id="Shape"></path>
            <path d="M0.905660377,15.6226415 L23.0943396,15.6226415 C23.5942642,15.6226415 24,15.2169057 24,14.7169811 C24,14.2170566 23.5942642,13.8113208 23.0943396,13.8113208 L0.905660377,13.8113208 C0.405735849,13.8113208 0,14.2170566 0,14.7169811 C0,15.2169057 0.405735849,15.6226415 0.905660377,15.6226415 Z" id="Shape"></path>
        </g>
    </g>
</svg>