<svg id="Layer_1" data-name="Layer 1" xmlns="http://www.w3.org/2000/svg" viewBox="0 0 159 40"><defs><style>.cls-1{fill:#0273ff;}.cls-2{fill:#252729;}</style></defs><title>Logo &amp;amp; Icon_Resized-Refont</title><path class="cls-1" d="M20.523.751a.678.678,0,0,1-.11.338Q14.825,13.151,9.236,25.211L6.563,30.979c-.042.09-.092.178-.127.271-.054.144-.145.149-.264.085-.077-.041-.157-.077-.233-.118A10.3,10.3,0,0,1,.312,23.3,10.526,10.526,0,0,1,8.421,11.524a9.685,9.685,0,0,1,2.037-.25c.3,0,.3-.013.312-.318A10.556,10.556,0,0,1,19.2.924,6.155,6.155,0,0,1,20.523.751Z"/><path class="cls-1" d="M25.573,1.609,24.339,4.273q-6.39,13.791-12.781,27.583c-.255.548-.254.549-.876.541a10.447,10.447,0,0,1-3.337-.583c-.082-.029-.164-.059-.245-.092a.276.276,0,0,1-.057-.049,1.129,1.129,0,0,1,.148-.378q7-15.114,14.007-30.229A1.178,1.178,0,0,0,21.259.93.314.314,0,0,1,21.624.7a10.877,10.877,0,0,1,3.186.592A4.251,4.251,0,0,1,25.573,1.609Z"/><path class="cls-1" d="M12.445,32.36a.748.748,0,0,1,.123-.343q6.843-14.771,13.691-29.54c.234-.506.134-.5.638-.192a10.743,10.743,0,0,1,2.465,2.1.433.433,0,0,1,.073.557q-1.945,4.166-3.871,8.341L16.888,32.01a1.613,1.613,0,0,0-.077.17.29.29,0,0,1-.335.222c-.318,0-.424,0-.636,0q-1.59,0-3.18,0C12.59,32.4,12.512,32.421,12.445,32.36Z"/><path class="cls-1" d="M30.4,5.86a10.477,10.477,0,0,1,1.24,3.073,10.349,10.349,0,0,1,.254,2,1.362,1.362,0,0,1-.136.646Q27.4,20.972,23.047,30.368c-.277.6-.556,1.2-.831,1.8-.059.127-.105.237-.286.236-1.247-.007-2.493,0-3.731,0-.014-.031-.02-.041-.024-.053s-.013-.025-.01-.034c.04-.1.077-.21.124-.311Z"/><path class="cls-1" d="M23.875,32.388A.741.741,0,0,1,24,32l9.366-20.217.049-.1c.137-.283.138-.29.453-.229a10.116,10.116,0,0,1,1.831.52c.29.114.569.254.858.369.175.07.178.16.1.315-.388.823-.766,1.65-1.149,2.475Q31.6,23.582,27.688,32.029a.535.535,0,0,1-.578.378c-1-.023-2-.008-2.994-.009C24.042,32.4,23.968,32.392,23.875,32.388Z"/><path class="cls-1" d="M38.334,13.464a10.856,10.856,0,0,1,2.13,2.169c.136.18.073.317,0,.478q-.9,1.933-1.793,3.868-2.775,5.988-5.54,11.981a.623.623,0,0,1-.644.426q-1.44,0-2.881,0C29.637,32.115,37.9,14.188,38.334,13.464Z"/><path class="cls-1" d="M35.564,31.7,41.79,18.264A10.441,10.441,0,0,1,35.564,31.7Z"/><path class="cls-2" d="M54.839,26.856a6.711,6.711,0,0,0,4.81,2.245,2.686,2.686,0,0,0,2.974-2.566c0-2.624-3.79-2.944-6.53-4.548a5.149,5.149,0,0,1-2.887-4.635c0-3.644,3.353-5.743,6.735-5.743a9.445,9.445,0,0,1,5.918,1.924l-2.041,2.915a5.46,5.46,0,0,0-3.527-1.341c-1.487,0-3.149.641-3.149,2.216,0,3.294,9.417,2.274,9.417,9.154,0,3.615-3.236,6.122-6.91,6.122a10.889,10.889,0,0,1-7.376-3.061Z"/><path class="cls-2" d="M76.7,24.524l7.784,7.784h-5.1l-5.977-6.123v6.123H69.62v-20.7h3.789V22.745l4.869-4.577h5.335Z"/><path class="cls-2" d="M87.781,39.3l3.907-8.425L85.362,18.168H89.53l4.14,8.484,3.819-8.484h3.994L91.746,39.3Z"/><path class="cls-2" d="M116.643,29.421a7.5,7.5,0,0,1-6.414,3.178,7.365,7.365,0,1,1,.03-14.722,7.542,7.542,0,0,1,5.947,2.828l-2.682,2.361a4.1,4.1,0,0,0-3.265-1.691,3.791,3.791,0,0,0-3.82,3.877,3.737,3.737,0,0,0,3.907,3.849,4.143,4.143,0,0,0,3.382-1.866Z"/><path class="cls-2" d="M125.914,17.877a7.363,7.363,0,1,1-7.522,7.375A7.362,7.362,0,0,1,125.914,17.877Zm0,11.224a3.694,3.694,0,0,0,3.731-3.849,3.734,3.734,0,1,0-7.463,0A3.694,3.694,0,0,0,125.914,29.1Z"/><path class="cls-2" d="M138.537,10.734a2.421,2.421,0,1,1-2.478,2.42A2.427,2.427,0,0,1,138.537,10.734Zm1.895,21.574h-3.79V18.168h3.79Z"/><path class="cls-2" d="M144.805,32.308V18.168h3.644v1.137a6.238,6.238,0,0,1,3.994-1.428,6.371,6.371,0,0,1,4.9,2.274,7.134,7.134,0,0,1,1.457,4.956v7.2h-3.79V24.815a3.418,3.418,0,0,0-.845-2.653,2.984,2.984,0,0,0-2.128-.787,4.511,4.511,0,0,0-3.44,1.749v9.184Z"/></svg>