<?xml version="1.0" encoding="UTF-8"?>
<svg width="30px" height="30px" viewBox="0 0 30 30" version="1.1" xmlns="http://www.w3.org/2000/svg" xmlns:xlink="http://www.w3.org/1999/xlink">
    <!-- Generator: Sketch 49.1 (51147) - http://www.bohemiancoding.com/sketch -->
    <title>ic/30x30/icCancel</title>
    <desc>Created with Sketch.</desc>
    <defs>
        <polygon id="path-1" points="5 5 24.6744 5 24.6744 24.9996667 5 24.9996667"></polygon>
    </defs>
    <g id="ic/30x30/icCancel" stroke="none" stroke-width="1" fill="none" fill-rule="evenodd">
        <mask id="mask-2" fill="white">
            <use xlink:href="#path-1"></use>
        </mask>
        <g id="Clip-2"></g>
        <path d="M24.4428,23.5896667 L15.9588,14.7521667 L23.9668,6.4105 C24.2764,6.088 24.2764,5.56383333 23.9668,5.24216667 C23.8172,5.0855 23.6188,4.99966667 23.4068,4.99966667 C23.194,4.99966667 22.9948,5.0855 22.846,5.24133333 L14.8372,13.5838333 L6.83,5.24216667 C6.6804,5.0855 6.4812,4.99966667 6.27,4.99966667 C6.058,4.99966667 5.8588,5.0855 5.7092,5.24216667 C5.5588,5.398 5.4764,5.6055 5.4764,5.82633333 C5.4764,6.04633333 5.5588,6.25383333 5.7092,6.4105 L13.7156,14.7521667 L5.2316,23.5896667 C4.9228,23.9121667 4.9228,24.4363333 5.2316,24.758 C5.3812,24.9146667 5.5804,24.9996667 5.7932,24.9996667 C6.0052,24.9996667 6.2036,24.9146667 6.3532,24.758 L14.8372,15.9205 L23.3212,24.758 C23.4716,24.9138333 23.67,24.9996667 23.882,24.9996667 C24.0932,24.9996667 24.2932,24.9138333 24.4428,24.758 C24.7524,24.4363333 24.7524,23.9121667 24.4428,23.5896667" id="Fill-1" fill="#92A4BA" mask="url(#mask-2)"></path>
    </g>
</svg>