<svg width="157" height="39" viewBox="0 0 157 39" version="1.1" xmlns="http://www.w3.org/2000/svg" xmlns:xlink="http://www.w3.org/1999/xlink">
<title>logo_bot</title>
<desc>Created using Figma</desc>
<g id="Canvas" transform="translate(2558 -38599)">
<g id="logo_bot">
<g id="Vector">
<use xlink:href="#path0_fill" transform="translate(-2557.96 38599.4)" fill="#0072FF"/>
</g>
<g id="Vector">
<use xlink:href="#path1_fill" transform="translate(-2506.82 38609.1)" fill="#FFFFFF"/>
</g>
</g>
</g>
<defs>
<path id="path0_fill" fill-rule="evenodd" d="M 28.9271 3.91754L 16.1913 31.1444L 11.946 31.1444L 25.7679 1.37114C 27.0513 1.95877 28.0386 2.84021 28.9271 3.91754ZM 20.8315 0C 22.3124 0 23.6946 0.293815 24.978 0.881446L 10.9587 31.1444L 10.4651 31.1444C 9.18165 31.1444 7.89819 30.8506 6.81219 30.4588L 20.8315 0ZM 37.5164 12.5361C 38.405 13.2217 39.0961 14.0052 39.7871 14.8866L 32.2839 31.1444C 31.9877 31.1444 31.5928 31.2423 31.2966 31.2423L 28.9271 31.2423L 37.5164 12.5361ZM 34.752 30.4588L 40.9719 17.1392C 41.3668 18.2165 41.5642 19.4897 41.5642 20.665C 41.5642 25.1702 38.7011 28.9898 34.752 30.4588ZM 31.1979 10.3815L 21.5226 31.1444L 17.5735 31.1444L 29.7169 5.0928C 30.6055 6.65981 31.1979 8.4227 31.1979 10.3815ZM 20.0417 0L 6.02237 30.165C 2.46819 28.5001 0 24.8764 0 20.7629C 0 15.0825 4.64019 10.3815 10.3664 10.3815C 10.3664 4.89692 14.6117 0.391754 20.0417 0ZM 35.9368 11.5567L 26.8539 31.1444L 23.2009 31.1444L 32.7775 10.5773C 33.9622 10.6753 34.9495 11.067 35.9368 11.5567Z"/>
<path id="path1_fill" fill-rule="evenodd" d="M 90.9279 21.5464L 91.0267 7.44332L 94.6796 7.44332L 94.6796 8.61858C 95.7656 7.73713 97.049 7.24744 98.6287 7.24744C 100.603 7.24744 102.282 8.12889 103.466 9.50002C 104.355 10.5773 104.947 12.0464 104.848 14.4949L 104.848 21.6444L 101.097 21.6444L 101.097 14.2011C 101.097 12.8299 100.801 12.0464 100.307 11.5567C 99.8134 11.067 99.0236 10.7732 98.2338 10.7732C 96.6541 10.7732 95.3707 11.7526 94.7783 12.5361L 94.7783 21.7423L 90.9279 21.5464ZM 85.3992 -3.73605e-07C 86.7814 -3.73605e-07 87.8674 1.07732 87.8674 2.44846C 87.8674 3.8196 86.7814 4.89692 85.3992 4.89692C 84.017 4.89692 82.931 3.8196 82.931 2.44846C 83.0297 0.979383 84.1157 -3.73605e-07 85.3992 -3.73605e-07ZM 87.275 21.5464L 83.5234 21.5464L 83.6221 7.44332L 87.3737 7.44332L 87.275 21.5464ZM 72.8608 7.05156C 77.1061 7.05156 80.2654 10.3815 80.2654 14.3969C 80.2654 18.5104 77.0074 21.7423 72.7621 21.7423C 68.5168 21.7423 65.3575 18.4124 65.3575 14.3969C 65.4563 10.2835 68.6155 7.05156 72.8608 7.05156ZM 72.8608 18.3145C 75.0328 18.3145 76.6124 16.6495 76.6124 14.4949C 76.6124 12.3402 75.1315 10.5773 72.9595 10.5773C 70.7875 10.5773 69.2079 12.3402 69.2079 14.3969C 69.2079 16.5516 70.6888 18.2165 72.8608 18.3145ZM 63.6792 18.5104C 62.0008 20.7629 59.9275 21.6444 57.2619 21.6444C 52.9179 21.6444 49.7586 18.3145 49.7586 14.299C 49.7586 10.1856 53.0166 6.95363 57.3606 6.95363C 59.8288 6.95363 62.0008 8.12889 63.2843 9.79384L 60.6186 12.1444C 59.8288 11.165 58.7428 10.4794 57.3606 10.4794C 55.1886 10.4794 53.609 12.1444 53.609 14.299C 53.609 16.5516 55.1886 18.1186 57.4593 18.1186C 59.039 18.1186 60.2237 17.2372 60.8161 16.2578L 63.6792 18.5104ZM 35.3444 28.3042L 39.2935 19.8815L 33.0737 7.1495L 37.2202 7.1495L 41.2681 15.6701L 45.1184 7.24744L 49.0675 7.24744L 39.2935 28.3042L 35.3444 28.3042ZM 24.3857 13.5155L 32.0864 21.3506L 27.0513 21.3506L 21.1277 15.1805L 21.1277 21.2526L 17.376 21.2526L 17.4748 0.58763L 21.2264 0.58763L 21.2264 11.6547L 26.064 7.1495L 31.3953 7.1495L 24.3857 13.5155ZM 2.66564 15.7681C 3.85037 17.0413 5.52873 18.0207 7.40455 18.0207C 9.18165 18.0207 10.3664 16.9433 10.3664 15.4743C 10.3664 12.8299 6.61474 12.5361 3.9491 10.8712C 2.36946 9.89178 1.086 8.52064 1.086 6.26806C 1.086 2.64434 4.44273 0.58763 7.79947 0.58763C 9.87274 0.58763 11.7486 1.07732 13.6244 2.5464L 11.5511 5.48455C 10.7613 4.70104 9.3791 4.11341 8.09565 4.11341C 6.61474 4.11341 4.93637 4.70104 4.93637 6.26806C 4.93637 9.59796 14.2167 8.61858 14.2167 15.4743C 14.2167 19.098 10.9587 21.5464 7.30583 21.5464C 4.54146 21.5464 2.07327 20.3712 -7.5323e-07 18.5104L 2.66564 15.7681Z"/>
</defs>
</svg>
