<svg width="18" height="18" viewBox="0 0 18 18" version="1.1" xmlns="http://www.w3.org/2000/svg" xmlns:xlink="http://www.w3.org/1999/xlink">
<title>snapchat</title>
<desc>Created using Figma</desc>
<g id="Canvas" transform="translate(1889 -38752)">
<g id="snapchat">
<g id="Vector">
<use xlink:href="#path0_fill" transform="translate(-1888.96 38752.4)" fill="#0084FF"/>
</g>
</g>
</g>
<defs>
<path id="path0_fill" d="M 8.97697 16.9C 7.78697 16.9 7.07697 16.39 6.44697 15.95C 5.97697 15.63 5.55697 15.32 5.05697 15.24C 3.90697 15.18 3.56697 15.24 2.94697 15.35C 2.83697 15.35 2.70697 15.32 2.65697 15.14C 2.47697 14.39 2.42697 14.18 2.29697 14.16C 0.976968 13.95 0.166968 13.65 0.00696752 13.28C -0.0230325 13.05 0.0469676 12.95 0.156968 12.95C 1.22697 12.76 2.17697 12.2 2.97697 11.26C 3.60697 10.54 3.90697 9.84 3.93697 9.77C 4.09697 9.45 4.12697 9.17 4.03697 8.95C 3.86697 8.54 3.28697 8.36 2.65697 8.15C 2.31697 8.02 1.76697 7.74 1.83697 7.35C 1.89697 7.07 2.26697 6.87 2.78697 6.91C 3.13697 7.07 3.43697 7.15 3.70697 7.15C 4.03697 7.15 4.18697 7.03 4.22697 6.99C 4.11697 5.23 4.02697 3.7 4.41697 2.83C 5.58697 0.21 8.05697 -4.76837e-08 8.97697 -4.76837e-08C 9.89697 -4.76837e-08 12.367 0.21 13.537 2.83C 13.927 3.7 13.837 5.23 13.727 6.99C 13.767 7.03 13.917 7.15 14.247 7.15C 14.517 7.15 14.817 7.07 15.167 6.91C 15.687 6.87 16.057 7.07 16.117 7.35C 16.187 7.74 15.637 8.02 15.297 8.15C 14.667 8.36 14.087 8.54 13.917 8.95C 13.827 9.17 13.857 9.45 14.017 9.77C 14.047 9.84 14.347 10.54 14.977 11.26C 15.777 12.2 16.727 12.76 17.797 12.95C 17.907 12.95 17.977 13.05 17.947 13.28C 17.787 13.65 16.977 13.95 15.657 14.16C 15.527 14.18 15.477 14.39 15.297 15.14C 15.247 15.32 15.117 15.35 15.007 15.35C 14.387 15.24 14.047 15.18 12.897 15.24C 12.397 15.32 11.977 15.63 11.507 15.95C 10.877 16.39 10.167 16.9 8.97697 16.9Z"/>
</defs>
</svg>
