<svg width="21" height="24" viewBox="0 0 21 24" version="1.1" xmlns="http://www.w3.org/2000/svg" xmlns:xlink="http://www.w3.org/1999/xlink">
<title>discord</title>
<desc>Created using Figma</desc>
<g id="Canvas" transform="translate(1594 -38749)">
<g id="discord">
<g id="Vector">
<use xlink:href="#path0_fill" transform="translate(-1593.96 38749.4)" fill="#0084FF"/>
</g>
</g>
</g>
<defs>
<path id="path0_fill" d="M 20 23L 14.75 18L 15.38 20L 2.5 20C 1.83696 20 1.20107 19.7366 0.732233 19.2678C 0.263392 18.7989 0 18.163 0 17.5L 0 2.5C 0 1.83696 0.263392 1.20107 0.732233 0.732233C 1.20107 0.263392 1.83696 4.44089e-16 2.5 0L 17.5 0C 18.163 4.44089e-16 18.7989 0.263392 19.2678 0.732233C 19.7366 1.20107 20 1.83696 20 2.5L 20 23ZM 10 5.8C 7.32 5.8 5.44 6.95 5.44 6.95C 6.47 6.03 8.27 5.5 8.27 5.5L 8.1 5.33C 6.41 5.36 4.88 6.53 4.88 6.53C 3.16 10.12 3.27 13.22 3.27 13.22C 4.67 15.03 6.75 14.9 6.75 14.9L 7.46 14C 6.21 13.73 5.42 12.62 5.42 12.62C 5.42 12.62 7.3 13.9 10 13.9C 12.7 13.9 14.58 12.62 14.58 12.62C 14.58 12.62 13.79 13.73 12.54 14L 13.25 14.9C 13.25 14.9 15.33 15.03 16.73 13.22C 16.73 13.22 16.84 10.12 15.12 6.53C 15.12 6.53 13.59 5.36 11.9 5.33L 11.73 5.5C 11.73 5.5 13.53 6.03 14.56 6.95C 14.56 6.95 12.68 5.8 10 5.8ZM 7.93 9.59C 8.58 9.59 9.11 10.16 9.1 10.86C 9.1 11.55 8.58 12.13 7.93 12.13C 7.29 12.13 6.77 11.55 6.77 10.86C 6.77 10.16 7.28 9.59 7.93 9.59ZM 12.1 9.59C 12.75 9.59 13.27 10.16 13.27 10.86C 13.27 11.55 12.75 12.13 12.1 12.13C 11.46 12.13 10.94 11.55 10.94 10.86C 10.94 10.16 11.45 9.59 12.1 9.59Z"/>
</defs>
</svg>
