<svg width="21" height="21" viewBox="0 0 21 21" version="1.1" xmlns="http://www.w3.org/2000/svg" xmlns:xlink="http://www.w3.org/1999/xlink">
<title>instagram</title>
<desc>Created using Figma</desc>
<g id="Canvas" transform="translate(2268 -38750)">
<g id="instagram">
<g id="Vector">
<use xlink:href="#path0_fill" transform="translate(-2267.96 38750.4)" fill="#0084FF"/>
</g>
</g>
</g>
<defs>
<path id="path0_fill" d="M 5.8 2.22045e-16L 14.2 2.22045e-16C 17.4 2.22045e-16 20 2.6 20 5.8L 20 14.2C 20 15.7383 19.3889 17.2135 18.3012 18.3012C 17.2135 19.3889 15.7383 20 14.2 20L 5.8 20C 2.6 20 0 17.4 0 14.2L 0 5.8C 4.44089e-16 4.26174 0.61107 2.78649 1.69878 1.69878C 2.78649 0.61107 4.26174 2.22045e-15 5.8 2.22045e-16ZM 5.6 2C 4.64522 2 3.72955 2.37928 3.05442 3.05442C 2.37928 3.72955 2 4.64522 2 5.6L 2 14.4C 2 16.39 3.61 18 5.6 18L 14.4 18C 15.3548 18 16.2705 17.6207 16.9456 16.9456C 17.6207 16.2705 18 15.3548 18 14.4L 18 5.6C 18 3.61 16.39 2 14.4 2L 5.6 2ZM 15.25 3.5C 15.5815 3.5 15.8995 3.6317 16.1339 3.86612C 16.3683 4.10054 16.5 4.41848 16.5 4.75C 16.5 5.08152 16.3683 5.39946 16.1339 5.63388C 15.8995 5.8683 15.5815 6 15.25 6C 14.9185 6 14.6005 5.8683 14.3661 5.63388C 14.1317 5.39946 14 5.08152 14 4.75C 14 4.41848 14.1317 4.10054 14.3661 3.86612C 14.6005 3.6317 14.9185 3.5 15.25 3.5ZM 10 5C 11.3261 5 12.5979 5.52678 13.5355 6.46447C 14.4732 7.40215 15 8.67392 15 10C 15 11.3261 14.4732 12.5979 13.5355 13.5355C 12.5979 14.4732 11.3261 15 10 15C 8.67392 15 7.40215 14.4732 6.46447 13.5355C 5.52678 12.5979 5 11.3261 5 10C 5 8.67392 5.52678 7.40215 6.46447 6.46447C 7.40215 5.52678 8.67392 5 10 5ZM 10 7C 9.20435 7 8.44129 7.31607 7.87868 7.87868C 7.31607 8.44129 7 9.20435 7 10C 7 10.7956 7.31607 11.5587 7.87868 12.1213C 8.44129 12.6839 9.20435 13 10 13C 10.7956 13 11.5587 12.6839 12.1213 12.1213C 12.6839 11.5587 13 10.7956 13 10C 13 9.20435 12.6839 8.44129 12.1213 7.87868C 11.5587 7.31607 10.7956 7 10 7Z"/>
</defs>
</svg>
