<?xml version="1.0" encoding="UTF-8" standalone="no"?>
<!DOCTYPE svg PUBLIC "-//W3C//DTD SVG 1.1//EN" "http://www.w3.org/Graphics/SVG/1.1/DTD/svg11.dtd">
<svg version="1.1" xmlns="http://www.w3.org/2000/svg" xmlns:xlink="http://www.w3.org/1999/xlink" preserveAspectRatio="xMidYMid meet" viewBox="-1 -1 25 25" width="21" height="21"><defs><path d="M17.56 0.1L18.01 0.22L18.43 0.39L18.83 0.6L19.21 0.84L19.56 1.13L19.87 1.44L20.16 1.79L20.4 2.17L20.61 2.57L20.78 2.99L20.9 3.44L20.97 3.9L21 4.38L21 16.63L20.97 17.1L20.9 17.56L20.78 18.01L20.61 18.43L20.4 18.83L20.16 19.21L19.87 19.56L19.56 19.87L19.21 20.16L18.83 20.4L18.43 20.61L18.01 20.78L17.56 20.9L17.1 20.97L16.63 21L4.38 21L3.9 20.97L3.44 20.9L2.99 20.78L2.57 20.61L2.17 20.4L1.79 20.16L1.44 19.87L1.13 19.56L0.84 19.21L0.6 18.83L0.39 18.43L0.22 18.01L0.1 17.56L0.03 17.1L0 16.63L0 4.38L0.03 3.9L0.1 3.44L0.22 2.99L0.39 2.57L0.6 2.17L0.84 1.79L1.13 1.44L1.44 1.13L1.79 0.84L2.17 0.6L2.57 0.39L2.99 0.22L3.44 0.1L3.9 0.03L4.38 0L16.63 0L17.1 0.03L17.56 0.1ZM8.75 16.63L11.38 16.63L11.38 11.72L11.5 10.91L11.82 10.28L12.28 9.86L12.83 9.63L13.42 9.61L13.97 9.81L14.43 10.22L14.75 10.86L14.88 11.72L14.88 16.63L17.5 16.63L17.5 10.71L17.33 9.35L16.87 8.32L16.18 7.6L15.35 7.17L14.43 7L13.51 7.08L12.64 7.38L11.91 7.87L11.38 8.54L11.38 7L8.75 7L8.75 16.63ZM4.38 16.63L7 16.63L7 7L4.38 7L4.38 16.63ZM4.6 3.26L4.28 3.75L4.16 4.35L4.28 4.95L4.6 5.44L5.09 5.77L5.69 5.89L6.28 5.77L6.77 5.44L7.1 4.95L7.22 4.35L7.1 3.75L6.77 3.26L6.28 2.92L5.69 2.8L5.09 2.92L4.6 3.26Z" id="a6xLIRswiP"></path></defs><g><g><use xlink:href="#a6xLIRswiP" opacity="1" fill="#0072ff" fill-opacity="1"></use><g><use xlink:href="#a6xLIRswiP" opacity="1" fill-opacity="0" stroke="#000000" stroke-width="1" stroke-opacity="0"></use></g></g></g></svg>