<svg width="19" height="20" viewBox="0 0 19 20" version="1.1" xmlns="http://www.w3.org/2000/svg" xmlns:xlink="http://www.w3.org/1999/xlink">
<title>Fill 1</title>
<desc>Created using Figma</desc>
<g id="Canvas" transform="translate(2078 -38751)">
<g id="Fill 1">
<use xlink:href="#path0_fill" transform="translate(-2077.96 38751.4)" fill="#0084FF"/>
</g>
</g>
<defs>
<path id="path0_fill" fill-rule="evenodd" d="M 9.57012 14.8153C 8.92552 13.5196 8.16935 12.2109 6.69431 12.2109C 6.41234 12.2109 6.13071 12.2586 5.87227 12.379L 5.37118 11.3548C 5.98183 10.8197 6.96855 10.3955 8.2369 10.3955C 10.21 10.3955 11.2226 11.3662 12.0265 12.6052C 12.5037 11.5474 12.7306 10.1188 12.7306 8.34811C 12.7306 3.92624 11.3765 1.65576 8.21371 1.65576C 5.09694 1.65576 3.75028 3.92624 3.75028 8.34811C 3.75028 12.7466 5.09694 14.9938 8.21371 14.9938C 8.70909 14.9938 9.15775 14.9382 9.57012 14.8153ZM 10.3428 16.3585C 9.65952 16.5455 8.93359 16.6489 8.21371 16.6489C 4.0635 16.6489 -3.20508e-09 13.2666 -3.20508e-09 8.34811C -3.20508e-09 3.3829 4.0635 -2.94599e-09 8.21371 -2.94599e-09C 12.4335 -2.94599e-09 16.458 3.35853 16.458 8.34811C 16.458 11.1235 15.19 13.3789 13.3469 14.8366C 13.9425 15.7479 14.5555 16.353 15.4091 16.353C 16.3407 16.353 16.7165 15.6178 16.7793 15.0412L 17.9925 15.0412C 18.0634 15.809 17.6874 19 14.2967 19C 12.2429 19 11.1571 17.7843 10.3428 16.3585Z"/>
</defs>
</svg>
