<svg width="21" height="19" viewBox="0 0 21 19" version="1.1" xmlns="http://www.w3.org/2000/svg" xmlns:xlink="http://www.w3.org/1999/xlink">
<title>reddit</title>
<desc>Created using Figma</desc>
<g id="Canvas" transform="translate(1796 -38751)">
<g id="reddit">
<g id="Vector">
<use xlink:href="#path0_fill" transform="translate(-1795.96 38751.4)" fill="#0084FF"/>
</g>
</g>
</g>
<defs>
<path id="path0_fill" d="M 20 8.52601C 20 7.12601 18.9 6.02601 17.5 6.02601C 16.9 6.02601 16.3 6.22601 15.9 6.62601C 14.4 5.72601 12.6 5.12601 10.5 5.02601L 11.6 1.02601L 15 2.02601C 15 2.55645 15.2107 3.06515 15.5858 3.44023C 15.9609 3.8153 16.4696 4.02601 17 4.02601C 17.5304 4.02601 18.0391 3.8153 18.4142 3.44023C 18.7893 3.06515 19 2.55645 19 2.02601C 19 1.49558 18.7893 0.986872 18.4142 0.611799C 18.0391 0.236727 17.5304 0.026013 17 0.026013C 16.3 0.026013 15.6 0.426013 15.3 1.02601L 11.3 0.026013C 11 -0.073987 10.8 0.126013 10.7 0.426013L 9.5 5.02601C 7.5 5.12601 5.6 5.72601 4.1 6.62601C 3.7 6.22601 3.1 6.02601 2.5 6.02601C 1.1 6.02601 0 7.12601 0 8.52601C 0 9.42601 0.4 10.126 1.1 10.626L 1 11.526C 1 15.126 5 18.026 10 18.026C 15 18.026 19 15.126 19 11.526L 18.9 10.626C 19.6 10.126 20 9.42601 20 8.52601ZM 7 8.82601C 7.7 8.82601 8.2 9.42601 8.2 10.026C 8.2 10.626 7.7 11.226 7 11.226C 6.3 11.226 5.8 10.726 5.8 10.026C 5.8 9.32601 6.3 8.82601 7 8.82601ZM 13.8 14.226C 12 15.326 8 15.326 6.2 14.226C 6 14.026 5.9 13.726 6.1 13.526C 6.3 13.326 6.6 13.226 6.8 13.426C 8 14.326 12 14.326 13.2 13.426C 13.4 13.226 13.7 13.326 13.9 13.526C 14.1 13.726 14 14.026 13.8 14.226ZM 13 11.226C 12.3 11.226 11.8 10.626 11.8 10.026C 11.8 9.32601 12.4 8.82601 13 8.82601C 13.7 8.82601 14.2 9.42601 14.2 10.026C 14.2 10.726 13.7 11.226 13 11.226Z"/>
</defs>
</svg>
